<svg xmlns="http://www.w3.org/2000/svg" xmlns:xlink="http://www.w3.org/1999/xlink" width="120" height="120.001"><defs><radialGradient id="radial-gradient" cx=".5" cy=".5" r=".99" gradientTransform="rotate(-37.44 .5 .5)" gradientUnits="objectBoundingBox"><stop offset="0" stop-color="#fa4a83"/><stop offset="1" stop-color="#7c233a"/></radialGradient><radialGradient id="radial-gradient-2" cx=".5" cy="-.201" r="1.112" gradientUnits="objectBoundingBox"><stop offset="0" stop-color="#6ba0e2"/><stop offset=".305" stop-color="#54729a"/><stop offset=".526" stop-color="#385076"/><stop offset="1" stop-color="#131e32"/></radialGradient><radialGradient id="radial-gradient-3" cx=".5" cy=".5" r=".5" gradientUnits="objectBoundingBox"><stop offset="0" stop-color="#c42e6c"/><stop offset="1" stop-color="#621736" stop-opacity="0"/></radialGradient><radialGradient id="radial-gradient-5" cx="0" cy=".576" r=".926" gradientTransform="matrix(1 -.007 .002 .301 -.001 .402)" gradientUnits="objectBoundingBox"><stop offset="0" stop-color="#6ba0e2"/><stop offset="1" stop-color="#365071"/></radialGradient><radialGradient id="radial-gradient-7" cx=".521" cy=".306" r=".488" gradientUnits="objectBoundingBox"><stop offset="0"/><stop offset="1" stop-opacity="0"/></radialGradient><radialGradient id="radial-gradient-9" cx="1" cy=".329" r="1.338" gradientTransform="matrix(-1 0 0 1 2 0)" gradientUnits="objectBoundingBox"><stop offset="0" stop-color="#f44881"/><stop offset="1" stop-color="#9e272e"/></radialGradient><linearGradient id="linear-gradient" x1=".224" x2=".825" y1=".053" y2=".955" gradientUnits="objectBoundingBox"><stop offset="0" stop-color="#ff5f94"/><stop offset="1" stop-color="#ec454f"/></linearGradient><linearGradient id="linear-gradient-2" x1=".072" x2=".841" y1=".092" y2="1.123" gradientUnits="objectBoundingBox"><stop offset="0" stop-color="#5b79a2"/><stop offset="1" stop-color="#2e4469"/></linearGradient><linearGradient id="linear-gradient-4" x1=".255" x2="1" y1=".896" gradientUnits="objectBoundingBox"><stop offset="0" stop-color="#fb3b78"/><stop offset="1" stop-color="#efc7d8"/></linearGradient><linearGradient id="linear-gradient-5" x1=".928" x2=".159" y1=".092" y2="1.123" xlink:href="#linear-gradient-2"/><clipPath id="clip-path"><circle id="Mask_Copy" cx="58" cy="58" r="58" fill="rgba(0,0,0,0.15)" data-name="Mask Copy"/></clipPath><clipPath id="clip-path-2"><circle id="Mask_Copy-2" cx="58" cy="58" r="58" fill="none" stroke="#707070" stroke-miterlimit="10" stroke-width="2" data-name="Mask Copy"/></clipPath><style>.cls-6{fill:url(#linear-gradient-2)}.cls-8{fill:#2e4469}.cls-10{mix-blend-mode:lighten;isolation:isolate;fill:url(#radial-gradient-3)}.cls-12{fill:url(#radial-gradient-5)}.cls-17{fill:url(#radial-gradient-9)}</style></defs><g id="frameworks-laravel52" transform="translate(-1647 -395)"><g id="Color_Crown_Shadow" data-name="Color Crown + Shadow" transform="translate(4103 785)"><circle id="Shadow" cx="58" cy="58" r="58" fill="url(#radial-gradient)" transform="translate(-2454 -388)"/><g id="Color_Crown" data-name="Color Crown" transform="translate(-2456 -390)"><path id="Ring" fill="url(#linear-gradient)" d="M780 826a59.72 59.72 0 01-33.547-10.247 60.176 60.176 0 01-21.739-26.4 59.921 59.921 0 015.532-56.9 60.176 60.176 0 0126.4-21.738 59.92 59.92 0 0156.9 5.532 60.174 60.174 0 0121.738 26.4 59.923 59.923 0 01-5.532 56.9 60.174 60.174 0 01-26.4 21.739A59.623 59.623 0 01780 826zm0-118a57.729 57.729 0 00-32.429 9.905 58.167 58.167 0 00-21.014 25.518 57.924 57.924 0 005.348 55 58.169 58.169 0 0025.518 21.014 57.923 57.923 0 0055-5.348 58.17 58.17 0 0021.014-25.518 57.924 57.924 0 00-5.348-55 58.171 58.171 0 00-25.518-21.013A57.638 57.638 0 00780 708z" transform="translate(-720 -706)"/></g></g><g id="js-laravel-and-frontend" transform="translate(1649 397)"><g id="js-laravel-and-frontend-2" clip-path="url(#clip-path)" data-name="js-laravel-and-frontend"><g id="Group_97" data-name="Group 97" transform="translate(32.867 16.433)"><path id="Shape" d="M26.593 26.558a2.375 2.375 0 01-1.875.739 32.024 32.024 0 01-11.965-3.614C7.152 20.66.394 14.526 0 2.469A2.381 2.381 0 01.7.71 2.517 2.517 0 012.589 0a25.963 25.963 0 0112.235 3.7 24.111 24.111 0 017.8 7.493 30.83 30.83 0 014.6 13.455 2.382 2.382 0 01-.631 1.91z" class="cls-6"/><path id="Path_28_Copy" fill="none" stroke="#253b5f" stroke-miterlimit="10" stroke-width=".5" d="M10.132 16.478a.09.09 0 01-.122-.056L6.767 5.878a.06.06 0 01.06-.078h2.461a.09.09 0 01.079.056l5.065 12.455a.09.09 0 00.131.043l4.478-2.754a.09.09 0 00.029-.124l-3.127-5.041a.03.03 0 01.02-.045l1.717-.314a.03.03 0 01.03.012l1.619 2.344a.03.03 0 01-.013.045z" data-name="Path 28 Copy"/><path id="Shape-2" d="M4.491 0a27.542 27.542 0 00-2.438 6.251A58.226 58.226 0 000 14.662a30.161 30.161 0 006.51 1.329 2.378 2.378 0 002.509-2.653A30.9 30.9 0 004.491 0z" class="cls-8" data-name="Shape" transform="translate(18.367 11.117)"/><path id="Shape-3" d="M28.834.743A2.375 2.375 0 0026.96 0a32.024 32.024 0 00-11.966 3.618A23.267 23.267 0 003.081 18.676C1.966 21.963-.488 30.876.086 44.3a2.159 2.159 0 002.154 2.065h.094A2.16 2.16 0 004.4 44.111a78.235 78.235 0 011.01-16.83 26.479 26.479 0 0011.658-3.675 24.111 24.111 0 007.8-7.493 30.83 30.83 0 004.6-13.455 2.382 2.382 0 00-.634-1.915z" class="cls-6" data-name="Shape" transform="translate(21.267)"/></g><g id="Group_98" data-name="Group 98" transform="translate(0 48.333)"><path id="Combined_Shape" fill="url(#radial-gradient-2)" d="M0 61.867v-50.2a2 2 0 012-2h35.64a9.251 9.251 0 016.2-2.377 9.383 9.383 0 011.367.1 12.291 12.291 0 0122.544 0 9.386 9.386 0 011.368-.1 9.251 9.251 0 016.2 2.377H116v52.2z" data-name="Combined Shape" transform="translate(0 5.8)"/><circle id="Oval_Copy_7" cx="11.35" cy="11.35" r="11.35" class="cls-10" data-name="Oval Copy 7" transform="translate(45.2 2.087)"/><circle id="Oval_Copy_7-2" cx="10.35" cy="10.35" r="10.35" class="cls-10" data-name="Oval Copy 7" transform="translate(46.2 3.087)"/><g id="Group_18" data-name="Group 18" opacity=".7" transform="rotate(90 46.934 65.69)"><g id="Group_18-2" data-name="Group 18"><path id="Path_13_Copy_2" d="M13.12 94.84v-29.4H17V42.755l-2.883-.055v-7.144h-3.68v-4.382H-.5V0h1v30.174h10.937v4.382h3.68v7.164l2.883.053v24.67h-3.88v28.4z" class="cls-12" data-name="Path 13 Copy 2" transform="translate(19.912)"/><path id="Path_17" d="M28.145 0v21.429H15v24.5H-3.821v16.9H9.8v9.684h11v23.429h21.427V74.2H29.433V56.289H15.542v49.4h-1v-50.4h15.891V73.2h12.794v23.742H19.8V73.509h-11v-9.684H-4.821v-18.9H14v-24.5h13.14V0z" class="cls-12" data-name="Path 17" transform="translate(0 1.534)"/><ellipse id="shadow_copy_5" cx="18" cy="5" fill="url(#radial-gradient-7)" data-name="shadow copy 5" opacity=".547" rx="18" ry="5" transform="rotate(-163 33.447 31.32)"/><ellipse id="shadow_copy_5-2" cx="18" cy="3" fill="url(#radial-gradient-7)" data-name="shadow copy 5" rx="18" ry="3" transform="rotate(-36 83.637 21.998)"/></g></g><g id="Group_20" data-name="Group 20" transform="rotate(165.02 36.76 34.413)"><circle id="Oval_5_Copy" cx="3.867" cy="3.867" r="3.867" fill="url(#linear-gradient-4)" data-name="Oval 5 Copy" transform="translate(8.217 45.013)"/><path id="Path_14_Copy_4" fill="none" stroke="#f44881" stroke-linejoin="round" stroke-miterlimit="10" stroke-width="2" d="M33.482 0l-8.748 15.628-22.083-4.242 8.531 33.84" data-name="Path 14 Copy 4"/><g id="Group_32_Copy_12" data-name="Group 32 Copy 12" transform="translate(21.267 12.63)"><circle id="Oval" cx="2.9" cy="2.9" r="2.9" class="cls-17"/></g><g id="Group_32_Copy_15" data-name="Group 32 Copy 15" transform="translate(0 8.763)"><circle id="Oval-2" cx="3.383" cy="3.383" r="3.383" class="cls-17" data-name="Oval"/></g></g><g id="Group" transform="translate(70.647 4.889)"><ellipse id="Oval-3" cx="2.23" cy="2.233" class="cls-8" data-name="Oval" rx="2.23" ry="2.233"/><ellipse id="Oval-4" cx=".858" cy=".859" class="cls-8" data-name="Oval" rx=".858" ry=".859" transform="translate(6.382 6.368)"/><ellipse id="Oval-5" cx=".858" cy=".859" class="cls-8" data-name="Oval" rx=".858" ry=".859" transform="translate(6.382 2.233)"/></g><g id="Group_Copy" data-name="Group Copy" transform="translate(19.333)"><ellipse id="Oval-6" cx="4.974" cy="4.917" fill="url(#linear-gradient-5)" data-name="Oval" rx="4.974" ry="4.917" transform="translate(8.418)"/><ellipse id="Oval-7" cx=".913" cy=".891" fill="#253b5f" data-name="Oval" rx=".913" ry=".891" transform="translate(1 12.617)"/><ellipse id="Oval-8" cx="1.913" cy="1.891" class="cls-8" data-name="Oval" rx="1.913" ry="1.891" transform="translate(0 5.296)"/></g></g></g></g></g></svg>